<svg id="Layer_1" xmlns="http://www.w3.org/2000/svg" xmlns:xlink="http://www.w3.org/1999/xlink" viewBox="-534.3 1346.3 678.8 435.8"><style>.st0{fill:#f2f2f2}.st1{fill:#e6e6e6}.st2{fill:#fff}.st3{fill:url(#SVGID_1_)}.st4{clip-path:url(#SVGID_3_);fill:#603813}.st5{clip-path:url(#SVGID_5_);fill:#e6e6e6}.st6{fill:#efb67d}.st7{fill:#de8d5c}.st8{fill:#fdd9b0}.st9{fill:#f2d2b1}.st10{clip-path:url(#SVGID_7_);fill:#fdd9b0}.st11{fill:#66401d}.st12,.st13{fill:#f4dc31}.st13{opacity:.5;enable-background:new}.st14{fill:#f6e92a}.st15{fill:#fcff53}.st16{clip-path:url(#SVGID_9_);fill:url(#SVGID_10_)}.st17{clip-path:url(#SVGID_12_);fill:url(#SVGID_13_)}.st18{fill:none;stroke:#89181b;stroke-width:3;stroke-miterlimit:10}.st19{fill:url(#SVGID_14_)}.st20{fill:#b7b7b7}.st21{fill:url(#SVGID_15_)}</style><path class="st0" d="M-484.3 1720.1H94.5l50 41h-678.8z"/><path class="st1" d="M-534.3 1761.1h678.8v21h-678.8zM-271.3 1742.1c0 4-11.6 7.2-27.5 7.2s-27.5-3.2-27.5-7.2 11.6-7.2 27.5-7.2c15.8 0 27.5 3.2 27.5 7.2z"/><path class="st1" d="M-262.7 1742.1c0 1.3-4.8 2.4-11.3 2.4s-11.3-1.1-11.3-2.4c0-1.3 4.8-2.4 11.3-2.4s11.3 1.1 11.3 2.4z"/><path class="st2" d="M-275.7 1694.6c0-3-10.4-5.4-23.2-5.4-12.8 0-23.2 2.4-23.2 5.4l1 47.1c0 3 9.4 5.4 22.2 5.4s22.2-2.4 22.2-5.4l1-47.1z"/><linearGradient id="SVGID_1_" gradientUnits="userSpaceOnUse" x1="-298.8" y1="1424.92" x2="-298.8" y2="1432.955" gradientTransform="matrix(1 0 0 -1 0 3123.73)"><stop offset="0" stop-color="#b3b3b3"/><stop offset="1" stop-color="#e6e6e6"/></linearGradient><ellipse class="st3" cx="-298.8" cy="1694.7" rx="21.5" ry="4.3"/><defs><ellipse id="SVGID_2_" cx="-298.8" cy="1694.7" rx="21.5" ry="4.3"/></defs><clipPath id="SVGID_3_"><use xlink:href="#SVGID_2_" overflow="visible"/></clipPath><ellipse class="st4" cx="-298.8" cy="1699.9" rx="21.5" ry="4.3"/><path class="st2" d="M-269.5 1701.6c-2.4 0-5.4 2.6-6.3 1.5-2.2-2.4-4.5 8.7-4.5 14.9 0 4.8 1.7 20.6 3.8 16.1 1-2 4.2.4 7 .4 6 0 10.8-7.4 10.8-16.4 0-9.1-4.8-16.5-10.8-16.5zm0 28.4c-3.5 0-7.3-.9-7.3-11.7 0-10.6 3.8-12.7 7.3-12.7s6.4 5.8 6.4 13c0 7.1-2.9 11.4-6.4 11.4z"/><defs><path id="SVGID_4_" d="M-269.5 1701.6c-2.4 0-5.4 2.6-6.3 1.5-2.2-2.4-4.5 8.7-4.5 14.9 0 4.8 1.7 20.6 3.8 16.1 1-2 4.2.4 7 .4 6 0 10.8-7.4 10.8-16.4 0-9.1-4.8-16.5-10.8-16.5zm0 28.4c-3.5 0-7.3-.9-7.3-11.7 0-10.6 3.8-12.7 7.3-12.7s6.4 5.8 6.4 13c0 7.1-2.9 11.4-6.4 11.4z"/></defs><clipPath id="SVGID_5_"><use xlink:href="#SVGID_4_" overflow="visible"/></clipPath><path class="st5" d="M-262 1718.3c0 7.1-3.4 12.8-7.5 12.8-4.2 0-6.7-3.9-6.7-11s2.5-14.7 6.7-14.7c4.2.1 7.5 5.8 7.5 12.9z"/><g><path class="st6" d="M-80 1546.5h25.7v22.7H-80z"/><path class="st7" d="M-80 1548.5h25.7v12.3H-80z"/><path class="st8" d="M55.2 1482.1c1.4-17.8 3.7-41.5-14.7-54.5-25.3-17.8-64.2-22.1-108.2-22.1-49.3 0-81.1 9.4-105.5 31-13.3 11.8-15 41.7-11.3 55.9 10.2 39.7 65.6 67.6 116.9 66.2 76-2 119.4-34.2 122.8-76.5z"/><path class="st9" d="M55.2 1482.1c1.4-17.8 3.7-41.5-14.7-54.5-25.3-17.8-64.2-22.1-108.2-22.1-49.3 0-81.1 9.4-105.5 31-13.3 11.8-15.2 41.2-11.3 55.9 10.5 39.6 65.6 67.6 116.9 66.2 76-2 119.4-34.2 122.8-76.5z"/><defs><path id="SVGID_6_" d="M55.2 1482.1c1.4-17.8 3.7-41.5-14.7-54.5-25.3-17.8-64.2-22.1-108.2-22.1-49.3 0-81.1 9.4-105.5 31-13.3 11.8-15.2 41.7-11.3 55.9 10.9 39.5 65.6 67.6 116.9 66.2 76-2 119.4-34.2 122.8-76.5z"/></defs><clipPath id="SVGID_7_"><use xlink:href="#SVGID_6_" overflow="visible"/></clipPath><path class="st10" d="M68.7 1502.6s-49.8 24.5-129.3 6.5h-14.6s-51 20.2-128.4-5.2l3.7-22H69.7l-1 20.7z"/><path class="st11" d="M-131.3 1491.6c-.1-.6-.2-1.5 1-2 1.6-.6 5.2-.1 8-.1 3.2 0 6.8-.4 8.4.4.9.4.4 1.5.1 2-1 1.4-5.2 2.4-8.5 2.4-5-.1-8.8-1.2-9-2.7z"/><path class="st7" d="M-82.9 1537.7s12.8 1.8 31.2-.8c0 0-3.4 3-11.1 3.3-12.7.6-20.1-2.5-20.1-2.5z"/><path class="st11" d="M-157.1 1488.5s20.6 2.2 35.1 2c19.1-.2 39.8-1.8 39.8-1.8l-74.9-.2zM-28.6 1491.6c-.1-.6-.2-1.5 1-2 1.6-.6 5.2-.1 8-.1 3.2 0 6.8-.4 8.4.4.9.4.5 1.5.1 2-1 1.4-5.2 2.4-8.5 2.4-5-.1-8.8-1.2-9-2.7z"/><path class="st11" d="M-59.4 1488.5s25.6 2.2 40.1 2c19.1-.2 39.7-1.8 39.7-1.8l-79.8-.2z"/><path class="st7" d="M-74.5 1487.5l-1.3 23.1 16.6-1.5-14-.8z"/><path class="st12" d="M-72.7 1470.5c89.3 0 118.8 4 131.7 5.5-8.5-41.6-7.5-121.7-121-121.1-101.5.5-117 70-128.2 117-.3 1.3-1 2.6-1.5 4 10.6-1.7 32.3-5.4 119-5.4z"/><path class="st13" d="M-31.4 1355.9c-9-5.2-19.5-8.2-31.9-8.1-12.2.1-22.7 3.5-31.9 9.4-41.7 26.4-50.4 75-56.5 114.5 0 .1 0 .2-.1.3 15.9-.6 30.9-1.2 56-1.4 7.2-.1 14.9-.1 22.9-.1 11.2 0 21.7.1 31.5.2 27.3.3 44.4 1 61.9 1.7-4.6-37.5-7.4-90.8-51.9-116.5z"/><path class="st14" d="M-32.4 1354.5c-8.8-5.3-19-8.3-31-8.2-11.8.1-22.1 3.6-31.1 9.4-40.5 26.6-48.9 76-54.8 115.9 0 .1 0 .2-.1.3 15.5-.7 30-1.2 54.3-1.4 7-.1 14.5-.1 22.3-.1 10.9 0 21.1.1 30.7.2 26.5.3 43 1 60.1 1.7-4.5-37.8-7.1-91.9-50.4-117.8z"/><path class="st13" d="M61.3 1476.5h-251s7.7-10 117-10 134 10 134 10z"/><path class="st15" d="M63.3 1476.5h-259s13.7-6 123-6 136 6 136 6z"/><g id="MARCA_1_"><g id="RIGHT_3_"><defs><path id="SVGID_8_" d="M-90.6 1431.3l-6-3.8 23.2-37.5 23.2 37.5-6.1 3.8-17.1-27.8z"/></defs><clipPath id="SVGID_9_"><use xlink:href="#SVGID_8_" overflow="visible"/></clipPath><linearGradient id="SVGID_10_" gradientUnits="userSpaceOnUse" x1="-97.5" y1="1713.67" x2="-29.5" y2="1713.67" gradientTransform="matrix(1 0 0 -1 0 3123.73)"><stop offset="0" stop-color="#e22426"/><stop offset="1" stop-color="#8a1d1b"/></linearGradient><path class="st16" d="M-97.5 1376.9h68v66.3h-68z"/><g><defs><path id="SVGID_11_" d="M-60.8 1402.3l7.6-12.3 23.2 37.5-6.1 3.8-17.1-27.8-3.4 5.5z"/></defs><clipPath id="SVGID_12_"><use xlink:href="#SVGID_11_" overflow="visible"/></clipPath><linearGradient id="SVGID_13_" gradientUnits="userSpaceOnUse" x1="-97.5" y1="1713.67" x2="-29.5" y2="1713.67" gradientTransform="matrix(1 0 0 -1 0 3123.73)"><stop offset="0" stop-color="#e22426"/><stop offset="1" stop-color="#8a1d1b"/></linearGradient><path class="st17" d="M-97.5 1376.9h68v66.3h-68z"/></g><path class="st18" d="M-31.1 1394.9c0 2.1-1.7 3.9-3.9 3.9-2.1 0-3.9-1.7-3.9-3.9 0-2.1 1.7-3.9 3.9-3.9 2.1 0 3.9 1.8 3.9 3.9z"/></g></g></g><path class="st1" d="M102.1 1748.6c2.9 3.7 1.4 6.7-3.2 6.7 0 0-98.5 2-163.5 2s-164.2-2-164.2-2c-4.7 0-6.1-3-3.1-6.6l3.9-4.8c3-3.6 9.2-6.6 13.9-6.6H84.8c4.7 0 10.9 3 13.8 6.7l3.5 4.6z"/><g><linearGradient id="SVGID_14_" gradientUnits="userSpaceOnUse" x1="-65.05" y1="1554.754" x2="-65.05" y2="1372.951" gradientTransform="matrix(1 0 0 -1 0 3123.73)"><stop offset="0" stop-color="#eee"/><stop offset=".944" stop-color="#d0cfd0"/><stop offset="1" stop-color="#ababab"/></linearGradient><path class="st19" d="M-227.1 1748.2c.1 1.6 1.4 2.8 3 2.8H94.1c1.6 0 2.9-1.3 3-2.8l10.7-178.4c.1-1.6-1.1-2.8-2.7-2.8h-340.3c-1.6 0-2.8 1.3-2.7 2.8l10.8 178.4z"/><path class="st2" d="M-57.2 1663.3c0-4.1 3.2-6.3 3.2-6.3 1.3-.9 1.8-2.7 1-4.1 0 0-.1-.2-1-.9-4.4-3.4-7 .1-11.4.1s-7.2-3.7-11.4-.1c-3.2 2.7-5.2 6.3-5.2 11.7 0 6.5 4.7 13.5 9.1 16.9 2.7 2 4.3.1 7.7.1 3.4 0 5.5 2 8.1 0 2.2-1.7 4.8-6.3 4.8-6.3.8-1.4.3-3.2-1-4 .1 0-3.9-2.7-3.9-7.1z"/><g><path class="st2" d="M-64.9 1650.8s6.3-1 7.9-8.5c0 0-7.5.8-7.9 8.5z"/></g></g><path class="st1" d="M-418.3 1717.6c-3.2 0-7.3.5-9.9 1.3l-61.1 18.9c-3.2 1-3.2 2.2.2 2.8l64 10.1c.7.1 1.6.2 2.4.2 3.1 0 6.8-.7 9.3-1.8l49.7-23.1c3.1-1.4 2.8-2.9-.5-3.2l-51.9-5c-.7-.2-1.5-.2-2.2-.2z"/><path class="st0" d="M-423.1 1746c-.8 0-1.5-.1-2.2-.2l-63.1-9.9 60.3-18.6c2.4-.7 6.2-1.2 9.4-1.2.7 0 1.4 0 2 .1 0 0 52 5 52.1 5l-49.9 23.2c-2.2.9-5.6 1.6-8.6 1.6z"/><path class="st20" d="M-418.6 1716.6c.7 0 2-.1 2.5 0l47.5 4.9-47.1 22.4c-1.9.9-5.1 1.7-7.8 1.7-.7 0-1.9-.2-2.4-.3l-57.5-9.5 55.4-17.8c2.3-.7 6.1-1.6 9.1-1.6m-.8-1.4c-3.2 0-6.6.4-9.2 1.2l-60.6 18.5c-3.3 1-3.6 2.8 1.4 3.9l62.3 10.1c.7.1 1.8.1 2.7.1 3.1 0 6.7-.8 9.1-2l49.9-23.7c3.1-1.5 2.8-3-.6-3.4l-52.2-4.2c-1.4-.1-.6-.2-2-.2l-.8-.3z"/><path class="st2" d="M-418.8 1717.7c.7 0 1.3 0 1.9.1l46.1 4.4-44.5 20.6c-1.9.9-5.1 1.5-7.9 1.5-.7 0-1.4 0-1.9-.1l-56.1-8.8 53.5-16.5c2.3-.7 5.9-1.2 8.9-1.2m0-3.3c-3.2 0-7.3.5-9.9 1.3l-61.1 18.8c-3.2 1-3.2 2.2.2 2.8l64 10.1c.7.1 1.6.2 2.4.2 3.1 0 6.8-.7 9.3-1.8l49.7-23.1c3.1-1.4 2.8-2.9-.5-3.2l-51.9-5c-.7 0-1.4-.1-2.2-.1z"/><ellipse class="st20" cx="-457.4" cy="1740.7" rx=".5" ry=".2"/><linearGradient id="SVGID_15_" gradientUnits="userSpaceOnUse" x1="-395.504" y1="1406.145" x2="-395.565" y2="1404.743" gradientTransform="matrix(1 0 0 -1 0 3123.73)"><stop offset="0" stop-color="#eff0f0"/><stop offset="1" stop-color="#d4d4d4"/></linearGradient><path class="st21" d="M-393.3 1718.3c-.3.4-1.5.7-2.7.7-1.2 0-2-.4-1.8-.7.3-.4 1.5-.7 2.7-.7 1.3 0 2.1.3 1.8.7z"/></svg>