<?xml version="1.0" encoding="utf-8"?>
<!-- Generator: Adobe Illustrator 19.1.0, SVG Export Plug-In . SVG Version: 6.00 Build 0)  -->
<svg version="1.1" id="LOGOMARCA_Vertical_P_x26_B" xmlns="http://www.w3.org/2000/svg" xmlns:xlink="http://www.w3.org/1999/xlink"
	 x="0px" y="0px" viewBox="-86.3 1456.3 237.5 207.5" style="enable-background:new -86.3 1456.3 237.5 207.5;"
	 xml:space="preserve">
<style type="text/css">
	.st0{fill:#FFFFFF;}
	.st1{fill:none;stroke:#FFFFFF;stroke-width:7.4409;stroke-miterlimit:10;}
</style>
<g>
	<path class="st0" d="M-86.3,1653v-14.1c0-3.7,1-6.4,3-8.2c2-1.7,4.6-2.6,7.8-2.6c3.3,0,5.9,0.8,8,2.4c2,1.6,3,3.7,3,6.3
		c0,1-0.2,1.7-0.6,2.1s-1,0.6-2,0.6c-1.7,0-2.5-0.6-2.6-1.7c-0.2-3.5-2.1-5.2-5.7-5.2c-3.9,0-5.8,2.1-5.8,6.2v14.1
		c0,4.2,2,6.2,5.9,6.2c1.2,0,2.1-0.2,2.9-0.5c0.8-0.3,1.3-0.8,1.7-1.5c0.3-0.6,0.6-1.2,0.7-1.7s0.2-1.1,0.3-1.8
		c0.1-1.1,0.9-1.7,2.5-1.7c0.9,0,1.6,0.2,2,0.6s0.6,1.1,0.6,2.1c0,2.7-1,4.9-3,6.5c-2,1.7-4.7,2.5-8,2.5c-3.2,0-5.8-0.9-7.7-2.6
		C-85.4,1659.5-86.3,1656.7-86.3,1653z"/>
	<path class="st0" d="M-60.2,1653v-14.1c0-3.7,1-6.4,3-8.2c2-1.7,4.6-2.6,7.9-2.6s5.9,0.9,7.9,2.6c2,1.7,3,4.5,3,8.2v14.1
		c0,3.7-1,6.4-3,8.2c-2,1.7-4.6,2.6-7.9,2.6s-5.9-0.9-7.9-2.6C-59.2,1659.5-60.2,1656.7-60.2,1653z M-55,1653c0,4.2,1.9,6.2,5.7,6.2
		c1.8,0,3.3-0.5,4.3-1.5s1.5-2.6,1.5-4.7v-14.1c0-2.1-0.5-3.7-1.5-4.7s-2.4-1.5-4.3-1.5c-3.8,0-5.7,2.1-5.7,6.2V1653z"/>
	<path class="st0" d="M-32.4,1661.9v-32.1c0-0.5,0.2-0.8,0.7-1.2c0.4-0.3,1-0.5,1.6-0.5h8.6c3.3,0,5.9,0.9,7.9,2.6
		c2,1.7,3,4.5,3,8.2v13.8c0,3.7-1,6.4-3,8.2c-2,1.7-4.6,2.6-7.9,2.6h-8.6c-0.6,0-1.2-0.2-1.6-0.5
		C-32.2,1662.7-32.4,1662.3-32.4,1661.9z M-27.3,1659h5.7c3.8,0,5.8-2.1,5.8-6.2V1639c0-4.2-1.9-6.2-5.8-6.2h-5.7V1659z"/>
	<path class="st0" d="M-4.7,1661.8v-32c0-0.5,0.2-0.9,0.7-1.2c0.5-0.3,1-0.5,1.6-0.5h17.2c0.5,0,1,0.2,1.3,0.7
		c0.3,0.4,0.4,1,0.4,1.5c0,0.6-0.2,1.2-0.5,1.6c-0.3,0.5-0.7,0.7-1.2,0.7H0.4v11.1h7.5c0.5,0,0.9,0.2,1.2,0.6
		c0.3,0.4,0.5,0.9,0.5,1.5c0,0.5-0.1,1-0.4,1.4s-0.7,0.6-1.3,0.6H0.4v11.1h14.4c0.5,0,0.9,0.2,1.2,0.7c0.3,0.5,0.5,1,0.5,1.6
		c0,0.6-0.1,1.1-0.4,1.5c-0.3,0.5-0.7,0.7-1.3,0.7H-2.4c-0.6,0-1.1-0.2-1.6-0.5C-4.5,1662.8-4.7,1662.3-4.7,1661.8z"/>
	<path class="st0" d="M30.3,1661.8v-31.1c0-0.9,0.2-1.5,0.7-1.9s1.1-0.6,1.8-0.6c0.9,0,1.7,0.2,2.3,0.6s1.2,1.2,1.8,2.3l6.8,12.8
		l6.9-12.8c0.6-1.1,1.2-1.9,1.7-2.3c0.6-0.4,1.3-0.6,2.3-0.6c0.7,0,1.4,0.2,1.8,0.6c0.5,0.4,0.7,1.1,0.7,1.9v31.1
		c0,0.5-0.2,0.9-0.8,1.2c-0.5,0.3-1.1,0.5-1.8,0.5s-1.3-0.2-1.8-0.5c-0.5-0.3-0.8-0.7-0.8-1.2v-23.2l-6.5,12
		c-0.5,0.8-1.1,1.2-1.9,1.2c-0.8,0-1.4-0.4-1.7-1.2l-6.5-12.3v23.5c0,0.5-0.2,0.9-0.8,1.2c-0.5,0.3-1.1,0.5-1.8,0.5
		s-1.3-0.2-1.8-0.5C30.5,1662.8,30.3,1662.3,30.3,1661.8z"/>
	<path class="st0" d="M63.5,1661.8v-32c0-0.5,0.2-1,0.8-1.2c0.5-0.3,1.1-0.4,1.8-0.4s1.3,0.1,1.8,0.4c0.5,0.3,0.7,0.7,0.7,1.2v32
		c0,0.5-0.2,0.9-0.7,1.2c-0.5,0.3-1.1,0.5-1.8,0.5s-1.3-0.2-1.8-0.5C63.8,1662.8,63.5,1662.3,63.5,1661.8z"/>
	<path class="st0" d="M75,1661.8v-32c0-1.1,0.9-1.7,2.6-1.7c0.9,0,1.6,0.2,2.2,0.6c0.6,0.4,1.1,1.2,1.7,2.3l10.7,21v-22.2
		c0-0.5,0.2-1,0.8-1.2c0.5-0.3,1.1-0.4,1.8-0.4s1.3,0.1,1.8,0.4c0.5,0.3,0.8,0.7,0.8,1.2v32c0,0.5-0.3,0.9-0.8,1.2
		c-0.5,0.3-1.1,0.5-1.8,0.5c-1.4,0-2.4-0.6-3-1.9l-11.6-22v22.2c0,0.5-0.2,0.9-0.8,1.2c-0.5,0.3-1.1,0.5-1.8,0.5s-1.3-0.2-1.8-0.5
		C75.3,1662.8,75,1662.3,75,1661.8z"/>
	<path class="st0" d="M103.7,1661.8v-32c0-0.5,0.2-0.9,0.7-1.2c0.5-0.3,1-0.5,1.6-0.5h17.2c0.5,0,1,0.2,1.3,0.7
		c0.3,0.4,0.4,1,0.4,1.5c0,0.6-0.2,1.2-0.5,1.6c-0.3,0.5-0.7,0.7-1.2,0.7h-14.4v11.1h7.5c0.5,0,0.9,0.2,1.2,0.6
		c0.3,0.4,0.5,0.9,0.5,1.5c0,0.5-0.1,1-0.4,1.4c-0.3,0.4-0.7,0.6-1.3,0.6h-7.5v11.1h14.4c0.5,0,0.9,0.2,1.2,0.7s0.5,1,0.5,1.6
		c0,0.6-0.1,1.1-0.4,1.5c-0.3,0.5-0.7,0.7-1.3,0.7H106c-0.6,0-1.1-0.2-1.6-0.5C104,1662.8,103.7,1662.3,103.7,1661.8z"/>
	<path class="st0" d="M129,1661.8v-32c0-0.5,0.2-0.8,0.5-1.2c0.3-0.3,0.7-0.5,1.2-0.5h9.2c7.4,0,11.1,3.3,11.1,9.9
		c0,2.7-0.6,4.9-1.8,6.4c-1.2,1.6-2.9,2.6-5,3.1l6.8,12.8c0.1,0.2,0.2,0.5,0.2,0.7c0,0.6-0.3,1.2-1,1.8s-1.4,0.8-2.1,0.8
		c-0.8,0-1.5-0.5-2-1.5l-7.1-13.9h-4.9v13.5c0,0.5-0.3,0.9-0.8,1.2s-1.1,0.5-1.8,0.5s-1.3-0.2-1.8-0.5
		C129.3,1662.8,129,1662.3,129,1661.8z M134.1,1644.2h5.8c4,0,6-1.9,6-5.8c0-3.8-2-5.8-6-5.8h-5.8V1644.2z"/>
</g>
<g id="MARCA_4_">
	<g id="RIGHT_4_">
		<g>
			<g>
				<polygon id="SVGID_1_" class="st0" points="-64.7,1603.6 -86.3,1590.2 -3.5,1456.3 79.2,1590.2 57.6,1603.5 -3.5,1504.5 				"/>
			</g>
		</g>
		<g>
			<g>
				<polygon id="SVGID_3_" class="st0" points="41.4,1500.1 68.5,1456.3 151.2,1590.2 129.6,1603.5 68.5,1504.5 56.3,1524.2 				"/>
			</g>
		</g>
		<path class="st1" d="M147.3,1473.9c0,7.6-6.2,13.8-13.8,13.8c-7.7,0-13.8-6.2-13.8-13.8s6.2-13.8,13.8-13.8
			S147.3,1466.3,147.3,1473.9z"/>
	</g>
</g>
</svg>
