<?xml version="1.0" encoding="utf-8"?>
<!-- Generator: Adobe Illustrator 19.1.0, SVG Export Plug-In . SVG Version: 6.00 Build 0)  -->
<svg version="1.1" id="Layer_1" xmlns="http://www.w3.org/2000/svg" xmlns:xlink="http://www.w3.org/1999/xlink" x="0px" y="0px"
	 viewBox="-534.3 1346.3 678.8 435.8" style="enable-background:new -534.3 1346.3 678.8 435.8;" xml:space="preserve">
<style type="text/css">
	.st0{fill:#F2F2F2;}
	.st1{fill:#E6E6E6;}
	.st2{fill:#FFFFFF;}
	.st3{fill:url(#SVGID_1_);}
	.st4{clip-path:url(#SVGID_3_);fill:#603813;}
	.st5{clip-path:url(#SVGID_5_);fill:#E6E6E6;}
	.st6{fill:#EFB67D;}
	.st7{fill:#DE8D5C;}
	.st8{fill:#FDD9B0;}
	.st9{fill:#F2D2B1;}
	.st10{clip-path:url(#SVGID_7_);fill:#FDD9B0;}
	.st11{fill:#66401D;}
	.st12{fill:#F4DC31;}
	.st13{opacity:0.5;fill:#F4DC31;enable-background:new    ;}
	.st14{fill:#F6E92A;}
	.st15{fill:#FCFF53;}
	.st16{clip-path:url(#SVGID_9_);fill:url(#SVGID_10_);}
	.st17{clip-path:url(#SVGID_12_);fill:url(#SVGID_13_);}
	.st18{fill:none;stroke:#89181B;stroke-width:3;stroke-miterlimit:10;}
	.st19{fill:url(#SVGID_14_);}
	.st20{fill:#B7B7B7;}
	.st21{fill:url(#SVGID_15_);}
</style>
<g>
	<polygon class="st0" points="-484.3,1720.1 94.5,1720.1 144.5,1761.1 -534.3,1761.1 	"/>
	<rect x="-534.3" y="1761.1" class="st1" width="678.8" height="21"/>
</g>
<g>
	<path class="st1" d="M-271.3,1742.1c0,4-11.6,7.2-27.5,7.2s-27.5-3.2-27.5-7.2s11.6-7.2,27.5-7.2
		C-283,1734.9-271.3,1738.1-271.3,1742.1z"/>
	<path class="st1" d="M-262.7,1742.1c0,1.3-4.8,2.4-11.3,2.4s-11.3-1.1-11.3-2.4c0-1.3,4.8-2.4,11.3-2.4S-262.7,1740.8-262.7,1742.1
		z"/>
	<path class="st2" d="M-275.7,1694.6c0-3-10.4-5.4-23.2-5.4c-12.8,0-23.2,2.4-23.2,5.4l1,47.1l0,0c0,3,9.4,5.4,22.2,5.4
		s22.2-2.4,22.2-5.4l0,0L-275.7,1694.6z"/>
	
		<linearGradient id="SVGID_1_" gradientUnits="userSpaceOnUse" x1="-298.8" y1="1424.92" x2="-298.8" y2="1432.9551" gradientTransform="matrix(1 0 0 -1 0 3123.73)">
		<stop  offset="0" style="stop-color:#B3B3B3"/>
		<stop  offset="1" style="stop-color:#E6E6E6"/>
	</linearGradient>
	<ellipse class="st3" cx="-298.8" cy="1694.7" rx="21.5" ry="4.3"/>
	<g>
		<g>
			<defs>
				<ellipse id="SVGID_2_" cx="-298.8" cy="1694.7" rx="21.5" ry="4.3"/>
			</defs>
			<clipPath id="SVGID_3_">
				<use xlink:href="#SVGID_2_"  style="overflow:visible;"/>
			</clipPath>
			<ellipse class="st4" cx="-298.8" cy="1699.9" rx="21.5" ry="4.3"/>
		</g>
	</g>
	<path class="st2" d="M-269.5,1701.6c-2.4,0-5.4,2.6-6.3,1.5c-2.2-2.4-4.5,8.7-4.5,14.9c0,4.8,1.7,20.6,3.8,16.1c1-2,4.2,0.4,7,0.4
		c6,0,10.8-7.4,10.8-16.4C-258.7,1709-263.5,1701.6-269.5,1701.6z M-269.5,1730c-3.5,0-7.3-0.9-7.3-11.7c0-10.6,3.8-12.7,7.3-12.7
		s6.4,5.8,6.4,13C-263.1,1725.7-266,1730-269.5,1730z"/>
	<g>
		<g>
			<defs>
				<path id="SVGID_4_" d="M-269.5,1701.6c-2.4,0-5.4,2.6-6.3,1.5c-2.2-2.4-4.5,8.7-4.5,14.9c0,4.8,1.7,20.6,3.8,16.1
					c1-2,4.2,0.4,7,0.4c6,0,10.8-7.4,10.8-16.4C-258.7,1709-263.5,1701.6-269.5,1701.6z M-269.5,1730c-3.5,0-7.3-0.9-7.3-11.7
					c0-10.6,3.8-12.7,7.3-12.7s6.4,5.8,6.4,13C-263.1,1725.7-266,1730-269.5,1730z"/>
			</defs>
			<clipPath id="SVGID_5_">
				<use xlink:href="#SVGID_4_"  style="overflow:visible;"/>
			</clipPath>
			<path class="st5" d="M-262,1718.3c0,7.1-3.4,12.8-7.5,12.8c-4.2,0-6.7-3.9-6.7-11c0-7.1,2.5-14.7,6.7-14.7
				C-265.3,1705.5-262,1711.2-262,1718.3z"/>
		</g>
	</g>
</g>
<g>
	<rect x="-80" y="1546.5" class="st6" width="25.7" height="22.7"/>
	<rect x="-80" y="1548.5" class="st7" width="25.7" height="12.3"/>
	<path class="st8" d="M55.2,1482.1c1.4-17.8,3.7-41.5-14.7-54.5c-25.3-17.8-64.2-22.1-108.2-22.1c-49.3,0-81.1,9.4-105.5,31
		c-13.3,11.8-15,41.7-11.3,55.9c10.2,39.7,65.6,67.6,116.9,66.2C8.4,1556.6,51.8,1524.4,55.2,1482.1z"/>
	<path class="st9" d="M55.2,1482.1c1.4-17.8,3.7-41.5-14.7-54.5c-25.3-17.8-64.2-22.1-108.2-22.1c-49.3,0-81.1,9.4-105.5,31
		c-13.3,11.8-15.2,41.2-11.3,55.9c10.5,39.6,65.6,67.6,116.9,66.2C8.4,1556.6,51.8,1524.4,55.2,1482.1z"/>
	<g>
		<g>
			<defs>
				<path id="SVGID_6_" d="M55.2,1482.1c1.4-17.8,3.7-41.5-14.7-54.5c-25.3-17.8-64.2-22.1-108.2-22.1c-49.3,0-81.1,9.4-105.5,31
					c-13.3,11.8-15.2,41.7-11.3,55.9c10.9,39.5,65.6,67.6,116.9,66.2C8.4,1556.6,51.8,1524.4,55.2,1482.1z"/>
			</defs>
			<clipPath id="SVGID_7_">
				<use xlink:href="#SVGID_6_"  style="overflow:visible;"/>
			</clipPath>
			<path class="st10" d="M68.7,1502.6c0,0-49.8,24.5-129.3,6.5h-14.6c0,0-51,20.2-128.4-5.2l3.7-22H69.7L68.7,1502.6z"/>
		</g>
	</g>
	<path class="st11" d="M-131.3,1491.6c-0.1-0.6-0.2-1.5,1-2c1.6-0.6,5.2-0.1,8-0.1c3.2,0,6.8-0.4,8.4,0.4c0.9,0.4,0.4,1.5,0.1,2
		c-1,1.4-5.2,2.4-8.5,2.4C-127.3,1494.2-131.1,1493.1-131.3,1491.6z"/>
	<path class="st7" d="M-82.9,1537.7c0,0,12.8,1.8,31.2-0.8c0,0-3.4,3-11.1,3.3C-75.5,1540.8-82.9,1537.7-82.9,1537.7z"/>
	<path class="st11" d="M-157.1,1488.5c0,0,20.6,2.2,35.1,2c19.1-0.2,39.8-1.8,39.8-1.8L-157.1,1488.5z"/>
	<path class="st11" d="M-28.6,1491.6c-0.1-0.6-0.2-1.5,1-2c1.6-0.6,5.2-0.1,8-0.1c3.2,0,6.8-0.4,8.4,0.4c0.9,0.4,0.5,1.5,0.1,2
		c-1,1.4-5.2,2.4-8.5,2.4C-24.6,1494.2-28.4,1493.1-28.6,1491.6z"/>
	<path class="st11" d="M-59.4,1488.5c0,0,25.6,2.2,40.1,2c19.1-0.2,39.7-1.8,39.7-1.8L-59.4,1488.5z"/>
	<polygon class="st7" points="-74.5,1487.5 -75.8,1510.6 -59.2,1509.1 -73.2,1508.3 	"/>
	<path class="st12" d="M-72.7,1470.5c89.3,0,118.8,4,131.7,5.5c-8.5-41.6-7.5-121.7-121-121.1c-101.5,0.5-117,70-128.2,117
		c-0.3,1.3-1,2.6-1.5,4C-181.1,1474.2-159.4,1470.5-72.7,1470.5z"/>
	<path class="st13" d="M-31.4,1355.9c-9-5.2-19.5-8.2-31.9-8.1c-12.2,0.1-22.7,3.5-31.9,9.4c-41.7,26.4-50.4,75-56.5,114.5
		c0,0.1,0,0.2-0.1,0.3c15.9-0.6,30.9-1.2,56-1.4c7.2-0.1,14.9-0.1,22.9-0.1c11.2,0,21.7,0.1,31.5,0.2c27.3,0.3,44.4,1,61.9,1.7
		C15.9,1434.9,13.1,1381.6-31.4,1355.9z"/>
	<path class="st14" d="M-32.4,1354.5c-8.8-5.3-19-8.3-31-8.2c-11.8,0.1-22.1,3.6-31.1,9.4c-40.5,26.6-48.9,76-54.8,115.9
		c0,0.1,0,0.2-0.1,0.3c15.5-0.7,30-1.2,54.3-1.4c7-0.1,14.5-0.1,22.3-0.1c10.9,0,21.1,0.1,30.7,0.2c26.5,0.3,43,1,60.1,1.7
		C13.5,1434.5,10.9,1380.4-32.4,1354.5z"/>
	<path class="st13" d="M61.3,1476.5h-251c0,0,7.7-10,117-10S61.3,1476.5,61.3,1476.5z"/>
	<path class="st15" d="M63.3,1476.5h-259c0,0,13.7-6,123-6S63.3,1476.5,63.3,1476.5z"/>
	<g id="MARCA_1_">
		<g id="RIGHT_3_">
			<g>
				<g>
					<defs>
						<polygon id="SVGID_8_" points="-90.6,1431.3 -96.6,1427.5 -73.4,1390 -50.2,1427.5 -56.3,1431.3 -73.4,1403.5 						"/>
					</defs>
					<clipPath id="SVGID_9_">
						<use xlink:href="#SVGID_8_"  style="overflow:visible;"/>
					</clipPath>
					
						<linearGradient id="SVGID_10_" gradientUnits="userSpaceOnUse" x1="-97.5" y1="1713.67" x2="-29.5" y2="1713.67" gradientTransform="matrix(1 0 0 -1 0 3123.73)">
						<stop  offset="0" style="stop-color:#E22426"/>
						<stop  offset="1" style="stop-color:#8A1D1B"/>
					</linearGradient>
					<rect x="-97.5" y="1376.9" class="st16" width="68" height="66.3"/>
				</g>
			</g>
			<g>
				<g>
					<defs>
						<polygon id="SVGID_11_" points="-60.8,1402.3 -53.2,1390 -30,1427.5 -36.1,1431.3 -53.2,1403.5 -56.6,1409 						"/>
					</defs>
					<clipPath id="SVGID_12_">
						<use xlink:href="#SVGID_11_"  style="overflow:visible;"/>
					</clipPath>
					
						<linearGradient id="SVGID_13_" gradientUnits="userSpaceOnUse" x1="-97.5" y1="1713.67" x2="-29.5" y2="1713.67" gradientTransform="matrix(1 0 0 -1 0 3123.73)">
						<stop  offset="0" style="stop-color:#E22426"/>
						<stop  offset="1" style="stop-color:#8A1D1B"/>
					</linearGradient>
					<rect x="-97.5" y="1376.9" class="st17" width="68" height="66.3"/>
				</g>
			</g>
			<path class="st18" d="M-31.1,1394.9c0,2.1-1.7,3.9-3.9,3.9c-2.1,0-3.9-1.7-3.9-3.9c0-2.1,1.7-3.9,3.9-3.9
				C-32.9,1391-31.1,1392.8-31.1,1394.9z"/>
		</g>
	</g>
</g>
<path class="st1" d="M102.1,1748.6c2.9,3.7,1.4,6.7-3.2,6.7c0,0-98.5,2-163.5,2s-164.2-2-164.2-2c-4.7,0-6.1-3-3.1-6.6l3.9-4.8
	c3-3.6,9.2-6.6,13.9-6.6H84.8c4.7,0,10.9,3,13.8,6.7L102.1,1748.6z"/>
<g>
	<g>
		<g>
			
				<linearGradient id="SVGID_14_" gradientUnits="userSpaceOnUse" x1="-65.05" y1="1554.754" x2="-65.05" y2="1372.9507" gradientTransform="matrix(1 0 0 -1 0 3123.73)">
				<stop  offset="0" style="stop-color:#EEEEEE"/>
				<stop  offset="0.9444" style="stop-color:#D0CFD0"/>
				<stop  offset="1" style="stop-color:#ABABAB"/>
			</linearGradient>
			<path class="st19" d="M-227.1,1748.2c0.1,1.6,1.4,2.8,3,2.8H94.1c1.6,0,2.9-1.3,3-2.8l10.7-178.4c0.1-1.6-1.1-2.8-2.7-2.8h-340.3
				c-1.6,0-2.8,1.3-2.7,2.8L-227.1,1748.2z"/>
		</g>
		<g>
			<path class="st2" d="M-57.2,1663.3c0-4.1,3.2-6.3,3.2-6.3c1.3-0.9,1.8-2.7,1-4.1c0,0-0.1-0.2-1-0.9c-4.4-3.4-7,0.1-11.4,0.1
				s-7.2-3.7-11.4-0.1c-3.2,2.7-5.2,6.3-5.2,11.7c0,6.5,4.7,13.5,9.1,16.9c2.7,2,4.3,0.1,7.7,0.1c3.4,0,5.5,2,8.1,0
				c2.2-1.7,4.8-6.3,4.8-6.3c0.8-1.4,0.3-3.2-1-4C-53.2,1670.4-57.2,1667.7-57.2,1663.3z"/>
		</g>
		<g>
			<path class="st2" d="M-64.9,1650.8c0,0,6.3-1,7.9-8.5C-57,1642.3-64.5,1643.1-64.9,1650.8z"/>
		</g>
	</g>
</g>
<path class="st1" d="M-418.3,1717.6c-3.2,0-7.3,0.5-9.9,1.3l-61.1,18.9c-3.2,1-3.2,2.2,0.2,2.8l64,10.1c0.7,0.1,1.6,0.2,2.4,0.2
	c3.1,0,6.8-0.7,9.3-1.8l49.7-23.1c3.1-1.4,2.8-2.9-0.5-3.2l-51.9-5C-416.8,1717.6-417.6,1717.6-418.3,1717.6L-418.3,1717.6z"/>
<path class="st0" d="M-423.1,1746c-0.8,0-1.5-0.1-2.2-0.2l-63.1-9.9l60.3-18.6c2.4-0.7,6.2-1.2,9.4-1.2c0.7,0,1.4,0,2,0.1
	c0,0,52,5,52.1,5l-49.9,23.2C-416.7,1745.3-420.1,1746-423.1,1746L-423.1,1746z"/>
<path class="st20" d="M-418.6,1716.6c0.7,0,2-0.1,2.5,0l47.5,4.9l-47.1,22.4c-1.9,0.9-5.1,1.7-7.8,1.7c-0.7,0-1.9-0.2-2.4-0.3
	l-57.5-9.5l55.4-17.8c2.3-0.7,6.1-1.6,9.1-1.6 M-419.7,1715c-3.2,0-6.6,0.4-9.2,1.2l-60.6,18.5c-3.3,1-3.6,2.8,1.4,3.9l62.3,10.1
	c0.7,0.1,1.8,0.1,2.7,0.1c3.1,0,6.7-0.8,9.1-2l49.9-23.7c3.1-1.5,2.8-3-0.6-3.4l-52.2-4.2c-1.4-0.1-0.6-0.2-2-0.2L-419.7,1715z"/>
<path class="st2" d="M-418.8,1717.7c0.7,0,1.3,0,1.9,0.1l46.1,4.4l-44.5,20.6c-1.9,0.9-5.1,1.5-7.9,1.5c-0.7,0-1.4,0-1.9-0.1
	l-56.1-8.8l53.5-16.5C-425.4,1718.2-421.8,1717.7-418.8,1717.7 M-418.8,1714.4c-3.2,0-7.3,0.5-9.9,1.3l-61.1,18.8
	c-3.2,1-3.2,2.2,0.2,2.8l64,10.1c0.7,0.1,1.6,0.2,2.4,0.2c3.1,0,6.8-0.7,9.3-1.8l49.7-23.1c3.1-1.4,2.8-2.9-0.5-3.2l-51.9-5
	C-417.3,1714.5-418,1714.4-418.8,1714.4L-418.8,1714.4z"/>
<ellipse class="st20" cx="-457.4" cy="1740.7" rx="0.5" ry="0.2"/>
<linearGradient id="SVGID_15_" gradientUnits="userSpaceOnUse" x1="-395.5037" y1="1406.1451" x2="-395.5647" y2="1404.7429" gradientTransform="matrix(1 0 0 -1 0 3123.73)">
	<stop  offset="0" style="stop-color:#EFF0F0"/>
	<stop  offset="1" style="stop-color:#D4D4D4"/>
</linearGradient>
<path class="st21" d="M-393.3,1718.3c-0.3,0.4-1.5,0.7-2.7,0.7c-1.2,0-2-0.4-1.8-0.7c0.3-0.4,1.5-0.7,2.7-0.7
	C-393.8,1717.6-393,1717.9-393.3,1718.3z"/>
</svg>
